<svg id="Warstwa_1" data-name="Warstwa 1" xmlns="http://www.w3.org/2000/svg" viewBox="0 0 232.44 37.55"><defs><style>.cls-1{fill-rule:evenodd;}</style></defs><title>logo PL6</title><path class="cls-1" d="M163.4,58.56c0,1.07,1.12-.4,1.12,2.23l0,4.87-.17,5.15h-.56c-.46,0-.41.25-.42.69a1.9,1.9,0,0,0,.7.14h2.23c.32,0,.42-.09.42-.41,0-.88-1.12,0-1.12-.84V59.26h.42c.43,0,.84-.13.84-.56,0-.64-1.12-.42-1.82-.42S163.4,57.87,163.4,58.56Z" transform="translate(-54.53 -50.91)"/><path class="cls-1" d="M180.25,58.56v.28c0,.32.1.42.42.42h.69L181,70.81h-1c-.32,0-.42.1-.42.42v.14c0,.68,4.25.55,5.16.55a1.44,1.44,0,0,0,.27-.83V67.47h-.86l-.25,3.34c-1.45,0-2.1.73-1.73-1.31.09-.49.2-3,.2-3.42a43.92,43.92,0,0,1,.42-6.68c.74,0,1.53.42,1.53-.28a.87.87,0,0,0-1-1,12.5,12.5,0,0,0-1.68.13C180.82,58.37,180.25,57.87,180.25,58.56Z" transform="translate(-54.53 -50.91)"/><path class="cls-1" d="M274.09,61.48v.28a.62.62,0,0,0,.69.56.94.94,0,0,0,.7-.56c0-.42-.13-.83-.56-.83h-.28A.53.53,0,0,0,274.09,61.48Z" transform="translate(-54.53 -50.91)"/><path class="cls-1" d="M145.31,63.15v-2.5c0-.71.42-1,1.11-1,.92,0,.84,7.5.84,8.9v2.09c0,.43-.41.56-.84.56-1.36,0-1.11-6.44-1.11-8.08Zm-1.26-1.67v.14a50.44,50.44,0,0,0,.25,6.16c.31,2-.11,4.42,2.12,4.42h.28c.71,0,1.67-.5,1.67-1.11V64.41c0-1.89.16-6-1.81-6h-.42C144.68,58.42,144.05,60,144.05,61.48Z" transform="translate(-54.53 -50.91)"/><path class="cls-1" d="M141.41,59.26c-.87-.07-.39-.42-1-.42H140c-1.43,0-1.56,1.13-1.54,2.65,0,.66.11,3.28.23,3.95.31,1.72-.2,6.9,1.58,6.9h.42c2.18,0,2.23-2,2.23-4.18v-.55c0-.46-.19-1.25-.56-1.25-1.4,0,.46,4.73-1.53,4.73-1,0-1-4.33-1-5.43s-.66-5.71.28-5.71c2.12,0,.6,4,1.81,4,.58,0,.65-3,.58-3.76l-.16-1.53h-.56C141.43,58.7,141.41,58.86,141.41,59.26Z" transform="translate(-54.53 -50.91)"/><path class="cls-1" d="M194.17,58.14l.28.42a2,2,0,0,0-2.23,2.23v.14c0,4.47,2.93,5.46,2.93,7.93,0,.83-.07,2.37-.84,2.37-1.34,0-1.25-3.07-1.25-4.59l-.54-.28-.43,5.56c-.05.47,0,.11.19.47l.64-.89c.44.33.47.84,1.25.84h.14c1.17,0,1.81-1.7,1.81-2.92V67.89c0-1.94-2.78-4.08-2.78-6.41v-.69a.86.86,0,0,1,1-1c1.06,0,.7,3.06.72,4.16l.4.3c1-.66.83-3.9.83-5.43-.25-.17-.24-.28-.56-.28s-.33.11-.42.45l-.83-.31c.4-.55,1.43-.57,1.53-1.81A1.84,1.84,0,0,0,194.17,58.14Z" transform="translate(-54.53 -50.91)"/><path class="cls-1" d="M274.23,64.13a.92.92,0,0,0,.55.69c.51,0,.84-.2.84-.69a.7.7,0,1,0-1.39,0Z" transform="translate(-54.53 -50.91)"/><path class="cls-1" d="M217.15,73.31c-.7,0-1-.66-1-1.39v-.14c0-.85.31-4.31,1-4.31a1.26,1.26,0,0,1,1.25,1.25v.56c0,1-.66,4-1.25,4Zm-2.23-2.08c0,1.76.24,3.06,2.09,3.06,1.51,0,2.5-3.06,2.5-4.73,0-1.23-.45-3.27-1.67-3.09l-1.11.16c0-.45.63-4.73,1-4.73,1.6,0,1.12,1.58,1.12,2.92a2.08,2.08,0,0,0,.13.7c.88,0,1.12-.83,1.12-1.67V63c0-.84-.88-2.23-1.53-2.23h-.28c-1.14,0-1.89.36-2.07,1.27s-.31,2.38-.41,3.07A58.76,58.76,0,0,0,214.92,71.23Z" transform="translate(-54.53 -50.91)"/><path class="cls-1" d="M153.66,58.84c0,.5.33.55.85.56l-.43,6.12H154l-.89-6.25h.42c0-.45-.25-.84-.7-.84h-.69c-.43,0-.84.13-.84.56,0,.79.7-.12.7.7l.06,2.78-.44,3.75-.88-6.68.42-.13v-.56a2.24,2.24,0,0,0-1.11-.28h-.56a.53.53,0,0,0-.55.56v.42h.55c.67,0,1.05,5.13,1.11,6s.26,6.26,1,6.26h.84V66.22a13.58,13.58,0,0,1,.27-1.67c.58.66.69,2.67.9,3.83s-.11,3.68,1,3.68c.2,0,.28-.19.28-.42v-.41a34.52,34.52,0,0,1,.39-6.43c.17-1.07-.11-2.38.14-3.35a5.93,5.93,0,0,0,.16-1.65c.07-1,1-.22,1-.82,0-.33-.18-.7-.55-.7h-1C154.51,58.28,153.66,58.31,153.66,58.84Z" transform="translate(-54.53 -50.91)"/><path class="cls-1" d="M274.09,66.49v.14a1,1,0,0,0,.55.7c.57,0,1-.3,1-.84a.79.79,0,0,0-.7-.69h-.14A.79.79,0,0,0,274.09,66.49Z" transform="translate(-54.53 -50.91)"/><path class="cls-1" d="M186,58.7c0,.91,1.12,0,1.12,2.23,0,.56-.08,2.73-.18,3.31a52.59,52.59,0,0,0-.38,6.57c-.68.32-.76.12-.84,1.08l4.32.17c.42,0,.55-.42.55-.83V69c0-.37-.2-.41-.41-.55l-.42.13-.28,2.51h-.84c-.46,0-1-.25-1-.7l0-.28.31-4c.25-.17.24-.28.55-.28a.86.86,0,0,1,1,1v1.12h.42c.31,0,.3-.11.51-.28l.18-4.73a1.63,1.63,0,0,0-.69-.28c-.34,0-.42,1-.42,1.39v.7c-.37-.09-.26-.14-.56-.14-.52,0-.26.09-.83.14V61.9c0-.71,0-2.5.69-2.5H189c.43,0,.84.13.84.55v1.81h.42c.66,0,.37-2.12.57-2.94l-.3-.37-3.48-.17h-.69C186.06,58.28,186,58.38,186,58.7Z" transform="translate(-54.53 -50.91)"/><path class="cls-1" d="M227.31,67.47c-.77-.52-.56-1.39-1.67-1.39h-.28c-.23,0-.42.08-.42.28,0,.48,1.67,1.53,2.09,1.53s.31-.11.58-.31l.53.44c1.13-.26,2.26-.07,2.37-1.39h-.7c-.61,0-1.14.55-1.8.7a4.25,4.25,0,0,0,.27-1.25v-.7c0-.32-.09-.42-.41-.42C226.85,65,227.31,66.58,227.31,67.47Z" transform="translate(-54.53 -50.91)"/><path class="cls-1" d="M111.61,65.38v.56c0,.7.23.74.28,1.39-.71-.17-1.09-.84-1.53-.84h-.14a2,2,0,0,0-.69.14v.42c0,.82,1.69.91,2.5,1,0-.2,0-.41.28-.41.46,0,.29.28.56.28a3.75,3.75,0,0,0,2.22-1.53c-.14-.22-.18-.42-.55-.42-1.1,0-1.29,1-2,1.39,0-1.19.18-2-.56-2.51C111.81,65,111.61,65,111.61,65.38Z" transform="translate(-54.53 -50.91)"/><path class="cls-1" d="M112.59,68.44c-.38,0-.46-.28-.84-.28s-1.81.89-1.81,1.4v.14c0,.22.09.41.28.41,1.07,0,1.29-1.09,2-1.53,0,.64-.14.47-.14,1,0,.32.27,1.53.56,1.53s.55-.41.55-.84a9.48,9.48,0,0,0-.41-1.81c.92.08,1.12.84,1.67.84h.28a1.44,1.44,0,0,0,.83-.28c-.54-.81-1.33-1-2.64-1C112.82,68.23,112.84,68.44,112.59,68.44Z" transform="translate(-54.53 -50.91)"/><path class="cls-1" d="M197.52,59.81c0,1,1-.43.7,2.24-.13,1.08.13,2.22-.06,3.28a56.64,56.64,0,0,0-.37,6.17c-.39.19-.69.07-.69.56s1.08.56,1.67.56a.83.83,0,0,0,.86-.48l-1-.53.14-.1.47-7.24c.8,1.15,1,8.19,2.22,8.5l1-11.93.93-.89a2.18,2.18,0,0,0-1.39-.69c-.58,0-1.39.12-1.39.69s1,.43,1,1.12l-.43,5.7h-.27c0-.94-.56-2.93-.7-4.17s-.11-3.48-1.39-3.48h-1.25Z" transform="translate(-54.53 -50.91)"/><path class="cls-1" d="M224.52,69.28a1.5,1.5,0,0,0,.84.28c.87,0,1.27-.75,1.81-1.12,0,1-.42,1.16-.42,1.81v.14c0,.39.32.54.56.7.72-.48.56-1.22.56-2.37.53.36,1.12,1.25,1.94,1.25h.42c-.09-1.13-1.2-1.57-2.22-1.81-.12.08-.35.28-.42.28-.39,0-.34-.1-.42-.42A3.16,3.16,0,0,0,224.52,69.28Z" transform="translate(-54.53 -50.91)"/><path class="cls-1" d="M273.67,69.28v.28a.79.79,0,0,0,.7.69h.41c.45,0,.7-.5.7-1a.79.79,0,0,0-.7-.7h-.41A.79.79,0,0,0,273.67,69.28Z" transform="translate(-54.53 -50.91)"/><path class="cls-1" d="M126.93,61.07c.54-.06.35-.14.83-.14s.7,2.27.7,2.92v.7a.53.53,0,0,1-.56.55h-.69l-.28-4Zm-2.09-.7v.7h.42c.81,0,.84,4.29,1,5.29.22,1.86.28,4.09.43,5.84-.2.11-.84.32-.84.56a.54.54,0,0,0,.56.55l1.12,0,1.25-.18c0-1.22-.37-.75-1.08-1.25l-.31-4.59v-.84h.41c1.68,0,1.4,4.58,1.4,6.27.25.17.24.28.55.28h.84c.32,0,.83-.16.83-.42a.53.53,0,0,0-.55-.56h-.42c-.24-1-.13-2.31-.31-3.45-.35-2.27.15-1.17-1-2.83l.42-.54.16-2.22c.12-1.33-.47-3.21-1.67-3.21C127.3,59.81,124.84,59.71,124.84,60.37Z" transform="translate(-54.53 -50.91)"/><path class="cls-1" d="M160.34,58.3c-.17.23-.28.23-.28.54v.47l1-.05v6.82c-.71-1-1.6-7.8-2.37-7.8h-1.81V59c0,1.21,1-1,1,2.23v3.2c0,1.91.14,4.24.14,6.4-.18.09-.56.19-.56.42a.53.53,0,0,0,.56.55h1.39c.27,0,.55-.25.55-.41,0-1-.95.29-1-1.11,0-.72,0-1.5,0-2.24,0-1.43,0-2.87.09-4.33l2.27,8,.15,0c.85-.62.41-10.26.41-12.24.25-.12.7-.15.7-.42s-.32-.88-.7-.87Z" transform="translate(-54.53 -50.91)"/><path class="cls-1" d="M170.53,63.3h.25c0,1.12.56,2,.56,3.07v1.25l-1.74,0,.93-4.29Zm-.44-4.88c0,2.14-.73,4.54-1,6.68-.12,1-.36,2.31-.56,3.33a11.46,11.46,0,0,1-.35,1.6c-.28.79-.9.72-.9,1.06a.53.53,0,0,0,.56.55h1.95a.54.54,0,0,0,.56-.55c0-.82-1.26-.31-1.26-.84a5.54,5.54,0,0,1,.28-1.37l1.81-.16h.56a2.07,2.07,0,0,1,.14.7v1.25h-.7a.54.54,0,0,0-.56.56c0,.27.25.55.42.5l1.39,0h.7c.51,0,1.11-.38,1.11-.83,0-.94-.95.12-1.11-.83-.13-.77-.19-1.11-.29-1.8-.16-1.07-.52-2.19-.7-3.34s-.39-2.48-.54-3.5c-.11-.73-.19-3.34-.84-3.34h-.14A.88.88,0,0,0,170.09,58.42Z" transform="translate(-54.53 -50.91)"/><path class="cls-1" d="M134.31,64h.28l1.08,4.43-1.78.18v-1l.42-3.06V64Zm-.7-4.73L132.5,71.78c-.25.06-.7.15-.7.42s.11.31.28.56l2.64-.15L135,72l-.44-.54c-.52,0-1,.13-1-.41v-.84c0-.61,1.82-.67,2.46-.83l.33,2.08h-.7a.54.54,0,0,0-.56.56c0,.37.2.41.42.56,1-.08,3.2,0,3.2-1,0-.74-.73-.16-1.17-.91a10.82,10.82,0,0,1-.48-1.61c-.37-1.1-.55-2.25-.93-3.38-.3-.85-.73-2.58-.91-3.41-.11-.51-.54-3.35-1-3.35A1.75,1.75,0,0,0,133.61,59.26Z" transform="translate(-54.53 -50.91)"/><path class="cls-1" d="M206,69.14c-1.89,0-1.3-.59-.84-2.23a23,23,0,0,1,1-3.2l.47,4.45-.06.28a2.08,2.08,0,0,1-.13.7Zm-3.9,3.34a.82.82,0,0,0,.84.42h2.22c.09-.38.14-.27.14-.56,0-.62-1.25.11-1.25-.7V71.5a4,4,0,0,1,.28-1.25h1.81a1.84,1.84,0,0,0,.69-.14v2H206a.63.63,0,0,0-.56.7c0,.66,3.76.87,3.76,0,0-.32-.11-.31-.28-.56-1.35,0-.83-1.19-1-2.5-.12-1-.34-2.16-.41-3.2-.16-2.12-.56-4.31-.56-6.68l-.55-.28c-.73.48-1.61,5.32-2,6.62s-.54,2.28-.86,3.45c-.16.58-.24,1.09-.42,1.68S202.56,71.81,202.11,72.48Z" transform="translate(-54.53 -50.91)"/><rect x="218.44" y="21.02" width="1.53" height="1.53" rx="0.56"/><path class="cls-1" d="M122.06,66.49c-.58,0-.69-1.65-.71-2.22,0-1.1-.27-1.83-.27-2.51,0-.19.19-.28.42-.28h.42c1,0,1.11,2.71,1.11,3.9v.56a.53.53,0,0,1-.56.55Zm-2.93-5.82c-.17.23-.28.22-.28.54v.14c0,.32.1.41.42.41h.61l1.34,10.29v.56c0,.45-.28.52-.7.55,0,.51.06.84.56.84l.14,0,1.81-.17c.17-.25.28-.24.28-.56V72.9h-.56c-.89,0-.61-3.34-.78-4.24-.39-2,2.17-.17,2.17-2.72V65.1c0-1.14-.33-4.59-1.39-4.59l-1.81,0Z" transform="translate(-54.53 -50.91)"/><path class="cls-1" d="M272.42,76.65a.79.79,0,0,0,.69-.69v-.28a.8.8,0,0,0-.69-.7h-.28a.8.8,0,0,0-.7.7v.42a.53.53,0,0,0,.56.55Z" transform="translate(-54.53 -50.91)"/><path class="cls-1" d="M270.75,80a1.07,1.07,0,0,0,.83-.83V79c0-.47-.24-1-.69-1h-.42c-.4,0-.84.58-.84,1A1.06,1.06,0,0,0,270.75,80Z" transform="translate(-54.53 -50.91)"/><path class="cls-1" d="M65.92,85.44l2.26-2.11c-.23,1-1.44,1.66-2.12,2.25l-.14-.14ZM272,61.76c-.16,0-.31-.09-.48-.11.38,3.62-.22,7.94-3,10.8.17,0,.36.22.52.1A14.87,14.87,0,0,0,272,61.76ZM275,88.46m9.85-11.95v0c-.12-.34.22,0,.08.16s-.07-.13-.07-.14Zm-13.83-3.78-1,1.09-.13-.12,1-1.11a1.85,1.85,0,0,0,.14.14Zm-6.15-1.5c.25-.25-.25.24,0,0Zm-197.56.69c.86.58,2.16,3.5,3.62,3.62-.46-.63-1.31-.92-2.09-2.09-.45-.67-1.51-1.78-1.53-2.64a32,32,0,0,1,2.17,2.84,8.77,8.77,0,0,0,1.2,1.3c.68.65,1.19.31,1.5.73l-3.76.82v-.26l.57-.12-.31-.42.83.32.1-.14-1.13-1.09.1-.11,1.48,1.18-2.68-3.3-.07-.64Zm-.14-3.2V69c.46.12,2.28,3.09,2.37,3.48-1.08-.29-1.32-2.22-2.09-2.78v.55c.7,1,2.76,4.63,4,4.73l-1.91-2.13.18-.18,2,1.9c-.19-.71-2-1.92-2.06-2.95l2.12,2.46L72,74l-3-3.72-.08.14.66,1.13c-.88-.58-1.54-2.71-2.37-2.78Zm2.37,2.78c-.25.25.25-.24,0,0ZM75,70l.81.77-.11.12-.83-.75L75,70Zm-1.53-.56.28.33-.09.14-.33-.33.14-.14Zm9.63.44c-1.1,0-2.46.11-3.06-.41l3.06.34v.07Zm155.66-1.39c-.59.66-2.44.07-2.22.1a6.33,6.33,0,0,0,2.22-.1Zm-135.89,0c-.47.41-1.67.57-2.09,0Zm138.28,0-.19-.19.14-.14.14.19-.09.14Zm-169.46,0c-.25-.24.24.25,0,0ZM242.9,68c-.25-.24.25.25,0,0ZM96.58,67.75c.24-.25-.25.24,0,0Zm4.31.27c-.75,0-.31-2.08.28-2.08h.28c.56,0,1.53.77,1.53,1.25v.28c0,.53-.84.55-1.39.55Zm-31.74-.27c-.25-.25.25.24,0,0Zm166.68-.4c0-.75,1.64-1.41,2.48-1.41h.14c.88.06,1.09,1.34.55,1.81a.4.4,0,0,1-.41.27h-.84c-.56,0-1.92-.13-1.92-.67Zm-146.21.12c-.25-.25.24.25,0,0Zm161.08-.28Zm-160.32.22-.12.1-.67-.76.14-.14.65.8Zm-4.24-.22c-.94,0-.9-.55-1.4-1.11l.42-.12L85,65.25l.93,1.7.24-.15-.58-1.14a11.37,11.37,0,0,1,1.67,1.67l-.06.14-1-.43-.06.15ZM94,65.41c.12.34-.22,0-.08-.17s.07.13.07.14v0Zm6.88-.86a7,7,0,0,1,2.62.86c.45.43,1.46,1.38,1.4,2.16-.15,2-1.89,3.1-4,3.1l-1.61,0,.92,2.47c-1.06-.28-1-1.73-1.4-2.64h-.55l-.14,0,1.81,4.54a6.13,6.13,0,0,1,3.7,1.73c.26.34,1.07,1.3,1.16,1.49.26.58.26,1.79,1,1.79l1.12.06,12.36-1.74,0,.15c.25-.17.25-.28.56-.28a2.76,2.76,0,0,1,.83.14c1.56-.82,3.12-.34,5.14-.56.83-.1,1.48-.36,2.38-.41.66,0,2.08-.16,2.68-.25,1.28-.2,4.1-.26,5.39-.31,1.77-.07,3.57-.28,5.44-.28,3.45,0,7.45-.71,10.57-.84,4-.15,7.37,0,11.28,0h8.91c2.62,0,6.42-.06,9.06.14s6,.56,8.62.56a75,75,0,0,1,8.86.19c2.34.43,6,.45,8.55.64,1.35.1,2.82.4,4.18.41.81,0,3.38.17,4.31.29a13.67,13.67,0,0,0,1.81.41c.61.05,1.58.17,2.12.25,1.38.21,2.9.1,4.24.36a30.83,30.83,0,0,0,3.94.65c.79,0,1.27.14,2.23.13,1.16,0,1.31.28,2.09.28h1c1,0,1.48-3.6,4.67-4.51,2.26-.64,1.82.18,2.36-2.23a14.37,14.37,0,0,0,.62-4h-.56a12.21,12.21,0,0,1-1.25,5.42c-4.19,0-5.39,4.74-6.12,4.74a52,52,0,0,1-6.38-.73c-2-.32-4.25-.38-6.35-.75-1.93-.34-4.48-.46-6.49-.61-2.21-.16-4.37-.32-6.68-.41-1.95-.08-4.35-.58-6.54-.56-1.15,0-2.16-.27-3.2-.29a33.12,33.12,0,0,1-3.6,0c-4.14-.65-9.2-.17-13.52-.68-2.23-.26-11.46-.76-13.74-.35-2.75.5-10.7.09-14,.22-2,.08-4.88.06-6.82.29s-4.71.12-6.63.46a64.26,64.26,0,0,1-6.75.36c-2.2.08-4.38.56-6.4.56-1.43,0-3.27.7-4.73.7-1.29,0-3.69.25-5.14.42s-3.25.34-4.86.58a17.3,17.3,0,0,1-2.25.53,21.34,21.34,0,0,1-2.51.28H106c-.47,0-.72-1.18-1.05-1.73a6.62,6.62,0,0,0-1.2-1.72A4.81,4.81,0,0,0,102.13,75c-.57-.18-1.93-.35-1.93-1s0-.05.16-.44l.53.44a3.69,3.69,0,0,1,3.38,1.63A8.35,8.35,0,0,1,106,79h.42a62.29,62.29,0,0,0,6.41-.83c1.84-.49,4.4-.42,6.46-.78s4.43-.31,6.59-.65c1.91-.29,4.71-.52,6.72-.66,8.83-.62,18.78-1.26,27.56-1.26h3.2c6.25,0,11.91-.09,18,.14,2.07.08,7,0,8.85.34,2.52.46,6.07.18,8.7.49,2.94.34,5.72.12,8.56.62a39.16,39.16,0,0,0,4.38.22c1.12.08,2.87.38,4.17.42,2.58.09,5.87.62,8.36.83,2.73.24,5.26,1,8.21,1h.14c.21,0,1.38-2,1.7-2.33A8.26,8.26,0,0,1,237,74.9c1.11-.3,2.24-.47,2.43-1.61.08-.5.3-3.53.3-3.87a2.07,2.07,0,0,1-.7.14h-1c-1.16,0-2.92-1-2.92-2.23,0-2.38,2.46-2.15,2.92-2.78a7,7,0,0,1-2.81-2.07,8.3,8.3,0,0,1-.95-1.41c-.19-.36-.57-1.71-.66-1.85-.36-.52-7.23-1.29-8.53-1.35s-2.93-.46-4.31-.56a31.76,31.76,0,0,1-4.42-.45c-2.32-.48-6.58-.35-9.23-.67-11.56-1.39-25.06-1.39-37.59-1.39h-9.74c-1.77,0-3,.14-4.74.14s-3,.15-4.59.14a58.31,58.31,0,0,0-9.25.5c-2.72.48-6.54.11-9.39.49-1.08.15-3.48.33-4.47.41-1.43.1-3.41.28-4.6.27-2.64,0-6,1-8.91,1-1.36,0-2.9.3-4.45.41s-3.45,0-4,1.07a10.2,10.2,0,0,1-1.87,3c-.6.6-2.36,1.86-2.68,2.33ZM268.38,83.89c-.52-.78-1.67-1.37-1.67-2.37v-.27a2.33,2.33,0,0,1,1.81-2v-.56a2.07,2.07,0,0,1,1.81-2.09c-.05-.57-.14-.31-.14-.83A2,2,0,0,1,272,73.87a5.64,5.64,0,0,1-.28-1.53c0-1,1.07-1.23,1.39-1.67l-.38-.58-1.6,2.6a10.9,10.9,0,0,1,1.25-2.48c.71-.94-.1-1.62,1.15-2.46a2.47,2.47,0,0,1-.42-1.12v-.41a2.29,2.29,0,0,1,.56-1.26,1.44,1.44,0,0,1-.28-.83v-.28c0-1.81.25-1.37-.69-2.78,0-.54.13-1.26.69-1.26a26.44,26.44,0,0,1,2.93,1.11,3.59,3.59,0,0,1,1.11,2.93c0,4-.84,7.46-1.45,10.94-.31,1.78-2.7,8.1-3.84,8.4l1.78-3.49c-.86.09-.51.65-.93,1.15-.66.78-.32.48-.82,1.26a2.7,2.7,0,0,1-2.54,1.64,2.48,2.48,0,0,1-.83-.14l-.42.28ZM237.59,60.63l.27.33-.09.13-.32-.32.14-.14Zm3.36-.82Zm-1.53-.27ZM99.22,64.27a35.66,35.66,0,0,1,3-2.2,9.79,9.79,0,0,0,2-3c.73-1.48,1-1.93,3.2-1.95,1,0,3.42-.28,4.57-.45,5.92-.87,12.69-.77,18.84-1.49,3.16-.37,6.35-.33,9.46-.69,2.95-.35,6.89,0,9.66-.52a87.13,87.13,0,0,1,9.83-.33c3.27,0,6.86-.14,9.88-.14,6.75,0,13.4.28,20.05.28,3.25,0,6.54.37,9.75.42a39.58,39.58,0,0,1,4.64.5c1.44.26,3.39,0,4.79.22,2.73.43,6.55.48,9.37.8,3.22.36,6.09.48,9.31.85,1.51.18,3.1.39,4.59.56,2.36.27,2,.36,2.78,2.24,1.65,4.19,3.93,3.16,5.17,4.85-2.16,0-1.48,0-3.16-1a4.37,4.37,0,0,1-2.09-2.36c-.31-.75-1-2.53-1.76-2.7s-3.36-.45-4-.47c-1.46,0-2.69-.37-4-.42a36.73,36.73,0,0,1-4.06-.4,71.13,71.13,0,0,0-8.07-.84c-2.5,0-5.87-.67-8.2-.7a67.87,67.87,0,0,1-8.28-.64,77.34,77.34,0,0,0-8.71-.19c-2.76,0-5.67-.14-8.63-.14H164.8a89,89,0,0,0-9.06.26,46.57,46.57,0,0,1-4.73,0c-1.57,0-2.74.29-4.31.28-2.9,0-6.12.53-8.77.57-3,0-5.94.18-8.91.41-2.51.18-6.1.35-8.61.72-1.3.2-3,.17-4.34.39a38.42,38.42,0,0,1-4.18.42c-1.43,0-2.59.42-4.32.41-2.12,0-2.15.27-2.87,1.72-1.32,2.64-2.36,3.16-4.64,4.69ZM242.5,60.19l-.82-1.09.12.57L241,59l0,.73-.66-.73,0,.73-.77-1-.07.75-.53-.44,0,.44-.91-.77-.13.09.34,1.09-.65-.47-.11.1.66,1-.57-.3,0,.47a2.34,2.34,0,0,1-2-2A69.89,69.89,0,0,0,243,56.48c1.2-.42,1.89-.55,3.08-1,.54-.22,2.86-1.21,3-1.21h.42s1.41.59,1.69.68a3.54,3.54,0,0,1,.77.34,1.68,1.68,0,0,1,.35.2,1.79,1.79,0,0,1,.14.15s.06.21.11.16l.16-.11c-.41-.31-.35-.52-.85-.87s-.75-.05-1.12-.55a7.81,7.81,0,0,1,3.41,1.13,20.44,20.44,0,0,1,2.62,1c1.88.89,2,.14,3.82,1.08,1.67.86,3.31,1.72,5.06,2.6a10.9,10.9,0,0,0,2.8,1.1c1.22.3,1.89.37,1.89,1.87v1.11a11.16,11.16,0,0,1-1.16,4.54c-1.05,2.1-1.52,1.83-2.46,3.11l-.7,0,1.62-3-.21-.15-2.32,2.66-.18-.13,1.41-2.26-2.52,1.94-.11-.11,1.43-1.35c-1.18,0-1.94,1.6-3.29,1.72l1.44-1.34-.09-.13-2.05,1.19-.1-.14,1.85-1.28-.08-.12-2,1.08-.08-.14.91-.75-1.27.44-.07-.13,1.2-.85c-.75,0-4.49,1.73-5.19.78,1.2,0,2.68,0,3.34-.56l-2.92.3-.42,0-2.22-.34.21-.93h-.36l.74-.64-1,.4.08-1.7-1.52,1.5-.66-.4,1.05-1.17-1.68,1.13.7-1-1.83,1.25.42-.86-.95.87-.16-.14.73-.81-.07-.12-.73.43c-.14-.21-.18-.41-.55-.41-.57,0-.66.27-1.39.28-.25-.68-.44,0-.86-1.09a2.31,2.31,0,0,0-.67-1.13v1c-.63-.72.14-1-.84-.83v-.56c-.59.14-1-.16-1,.42,0,1.06.62,1.83.69,2.78l-.48.35c-.19-.1-.18-.21-.49-.21h-.56v.42l-.53-.33.14.6-.7-.31,0,.45-.67-.58-.19.43-.64-.33.13.47c-.39-.08-.83-.33-.69-.61a1.46,1.46,0,0,0-1.14-2.16c-1.16,0-3.38.64-3,2.24,0,0-.05-.09-.08-.4,0-1.58,2.22-2.14,3.89-2.25a18.07,18.07,0,0,0,4.41-1.58c1.66-.72,3.4-.53,4.9-1.09,1.14-.42,1-.66,1.74-1.18s1.4-.45,1.48-1.45l-.81.59.11-.45-.67.32a31.43,31.43,0,0,0,.81-3.1s-.13-.28-.13-.28c-.67.49.16,1.23-1.54,2.37v-.42l-.4.17c-.07-.76-.2-1.67-.85-1.84l.39,1.27-.14.67-.51-.43,0,.58-.49-.17-.06.17c-.79-.53-1.46-1.39-2.65-1.39l1.63,1.57-.18.17-.95-1,.67,1.14-.13.11-1.14-1.22.72,1.39-.12.1-1.24-1.26-.14.12.94,1.17-.13.13-1.16-1.07.41.85-1-.86.13.86-.14.08L242.46,59l-.13.08.34,1-.17.12ZM88.08,56.75c0-.38.11-.33.42-.42,0,2.25.82,2.11,1.11,2.91l.61-.25.37-2.1.56-.28c-.05.58-.42,1.19-.42,1.53,0,.53.09.27.14.84l.57-.27-.15.56.55-.15c.19.55.51-.29,1-.65a4.22,4.22,0,0,1,1.61-.61L93,59.43l.14.13,1-1,.11.11-.8,1,.14.12,1.12-1.24.13.11-.92,1.34.14.11,1.26-1.37.17.13-1,1.3c.87-.07.77-.7,1.42-1.09l-.52.91.12.09.94-1-.08,1,.78-1-.16,1,.23,0,.61-.8v.42l.2-.06.63-.64-.08.87.64-.73.06.6.81-1.1.13.09-.14.85.67-.58,0,.43.9-.78.13.1-.44,1.14.74-.41-.65,1a4.41,4.41,0,0,0,2.09-3.75l1.39-.43c-1.26,0-2.42-.83-3.34-1.25A29.62,29.62,0,0,0,98,53.94c-1.18-.36-2.52-.62-3.79-.94-.65-.17-3.34-1.4-3.34-1.4H90l.06.13-2.92,1.33.91-1,.82,0,.3-.4c-1.28,0-2.16.76-3.11,1.21s-2.34.77-3.3,1.16c-2.09.85-4,1.8-6,2.78a31.41,31.41,0,0,0-5.46,3.32c-.46.34-.81.69-1.22,1s-1,.53-1.43.8-.94,2.77-.94,3.51v1c0,.61,1,1,1.34,1.22l.33-.39v.42h.42l-.09-.74.78.88.06-.6,1.06,1.15.08-.5,1.6,1.61-.17-.54.1-.11L74.87,70l-.49-.65.14-.17,3,2,.09-.13-1.6-1.45.09-.12,2.16,1.23.08-.12-1.56-1.23,2,.86-.71-.84,1.28.39L78,69l.09-.2,1.9.67L79.87,69c1.07,0,2.18.51,2.79.46L85,69.14h.44l-.3-1,.45,0L85,67.58h.14l.72,0c-.56-.83-1.78-1.07-1.74-2.72l.37.46L85,63.12h.14l.42.18L86,63l-.45,2.22c.59.24,1.34,2.06,2.54,2.06l-1-1,.13-.08,1.64,1.16L89,67.3l-.89-.83.14-.09,1.45.93-.31-.68h.28v-.27a1.63,1.63,0,0,0,.83.41c.08,0,.29-.19.43-.3l1.38.3c1.55-1,.94-1.68,1.69-2.23l.26.7c0-.65.05-.79.54-.56l.17-.57.4.3c.18-.25.42-.42.42.14v.27a14.13,14.13,0,0,1-.66,2.46l.52.3,1.11-.15v.2l.41,0v.53l.68-.32.08.23.68-.14-.3.69,1-.71v.41c1.69-.89.12-1.83,1.53-2.78,1,0,2.65.55,2.65,1.39v.28a2.23,2.23,0,0,1-.56,1.25c.41-.09,1-.36,1-.83v-.42c0-1.55-2.15-2-3.76-2.08-1.38-.09-3.22-1.13-4.4-1.6-1.73-.68-3.53-.55-4.82-1-.67-.25-3.25-2-3.26-2.74l.86.6L88.36,60l.56.11c0-1.48-.84-2.38-.84-3.2v-.14ZM269.63,84.59h.56l1.53-.16c.77,2,4.36-5,3.76-3.32l-1.55,4.25.16.06c.71-.19,1.3-2.23,1.67-2.92l.28-.07.75-2,.18.28.52-.82.18.27-.06-.28c-.12-.08,1.34-3.12,1.85-4.5l-.65,4.19.92-1.83c-.06,1.5-.7,2.43-1.05,3.79-.17.67-.37,1.24-.58,1.92s-.65.88-.81,1.55l1.17-1.63.1.38c.47-.13,1.82-3,2.05-3.77a25.15,25.15,0,0,0,1.14-4.58H282c0,1.73-.67,2.65-1,4.12-.28,1.15-1.18,3-1.19,3.81a18.71,18.71,0,0,0,2-4,7,7,0,0,0,.69-2.24,5.71,5.71,0,0,1,.55-2.37l-.45,5c1.57-.55,1.18-5.75,2.12-7.23l.15,0L283.62,81l1.11-4.35.2.05-1.38,5.54.41.3c1.26-2.38,1.41-1.19,2-4.81a24.69,24.69,0,0,0,.76-5.93l.21.58a28.67,28.67,0,0,0-.71-5c-.52-1.88-.31-2.89-1.73-3.84l-3.34,0c-.65-.93-1.28-.43-2.06-1.24-.16-.17-1.77-1.25-2-1.36-.81-.45-3.7-2-4.73-2-.06,0-1.81,1.06-1.81,1.53v.84a29.14,29.14,0,0,1-3-.89c-.79-.31-1.46-.89-2.56-1.34a32.81,32.81,0,0,1-4.93-2.45c-1.71-.63-2.7-.34-4.24-1.29a47.87,47.87,0,0,0-6-1.84c-.63,0-2.31,1-3.33,1.31a27.41,27.41,0,0,0-3.24,1,57.43,57.43,0,0,1-7.84,2.42l-.38-1.39c-2.09-.17-5-.77-7.23-1.13-2.38-.38-4.85-.45-7.36-.85-4.65-.72-10.48-.84-14.94-1.35-2.42-.28-5.7,0-8-.37s-5.6,0-7.83-.39a76.7,76.7,0,0,0-8.13-.22c-2.65,0-5.13-.28-7.93-.28h-13c-12.94,0-25.68,1.35-37.87,2.22-3.06.22-16.17,2.12-18,1.59-2.45-.71-5.18-2.32-7.26-2.75-1-.22-3.08-.72-4-1-.48-.18-3.43-1.41-3.46-1.41H90c-1,0-8.72,3.32-9.88,3.9-1.52.76-3.13,1.34-4.64,2.17-.49.27-4.22,2.42-4.41,2.42h-.28c-.46,0-1.23-1.53-2.37-1.53H68c-.92,0-2.34,1-4,1-.89,0-1.06-.28-2-.28H60.24c-2,0-3.39,4.11-4,5.9a45.38,45.38,0,0,0-1.72,8c.86-1.24,1.52-9,2.92-10-.36,1.59-2.08,7.05-1.8,8.21a1.37,1.37,0,0,0-.28.83c0,.27,0,.25.14.42a2.87,2.87,0,0,0-.42.84c0,.26.28.09.28.55v.42l-.51.5.37.06v5.15c0,.65.31.71.69,1l.17-4.73c.79.55.68-.22.67,1.53v2.51A28,28,0,0,0,57.32,84h.15l-.21-7.1c.9.62-.2,4.31.75,5L57.84,79l0-.7h.28c0,1,.11,3.38.56,3.9v-4h.14l.07,2.36.14,0,.31-.61.54,4.47h.33V84l-.5-6.67c0-.39.15-.29.36-.43,0,.83.37,5.2.7,5.57l-.34-5c.93,1,.22,3.78,1.17,4.87V80.69l.56,3.06h.28L62,80c.72.76.35,2.59,1.17,3.19L63,82.09l.53,1.27c0-1-1.09-4.78-.36-5.31l.74,3.33h.24l-.77-4.72.07-.43a2.07,2.07,0,0,1,.14-.7l.17,0,.25,2.8h.14L64,75c.34.15.4,0,.4.41v2.37l0,1.81h.16c0-1,.23-5,.38-6,.21-1.28.22-4.64.31-6,.16-2.26,1.61-9.19,3.48-9.19a1.66,1.66,0,0,1,1.39,1.67c0,.49-1.12.14-1.67.14h-.27c-.39,0-.34.11-.42.42l1.53-.17c.18,0,.22.2.28.31a.8.8,0,0,1-.7.42c-1.33,0-.94-.49-2.09.27l-.7,3.9h-.27l-.18,5.84a21.63,21.63,0,0,0,.48,4.43,3.71,3.71,0,0,0,.73,1.64c.61.92.82.65,1.2,1.17h-.7l.45.37-.08.15-1.06-.53-.09.12.86.66.06.21h-.7l.3.4-1.44-.78,0,.38H66l-.33,1.23-.37-.11v2.5l-.78-2.91-.19,0c0,2.06,1.11,4.17,1.11,4.87,0,0-1.15,1.26-1.25,1.4,1.69,0,2,.15,3.16-.87A7.56,7.56,0,0,0,69,83.08a29.52,29.52,0,0,0,1.23-3c.25-2,.84-1.46.84-3.34a1.21,1.21,0,0,1,1.11-.69h.56v.14l8.08.51C86.81,77,89.24,74,93.1,74h.14l1.67-.13v.69c0,.71-1.4.56-1.4,2a2.13,2.13,0,0,0,1.67,1.67h.28c3.71,0,3.47-2,4.18-2h.14c1,0,2.64,1.35,3.24,1.91a5.14,5.14,0,0,1,1.21,3.79,59.79,59.79,0,0,0,6.13-.7c2.11-.19,3.78-.42,5.82-.72,1.83-.27,4.23-.59,6-.79,2-.22,4.19-.68,6.11-.71,4-.06,8.52-.66,12.81-.83,4.05-.16,8.62-.7,12.81-.7l.39-.45.56.47,7.54-.2,13.23,0,8.49.32c.33,0,.29.06.56.24.78-.5,24.49.88,26,1.3s4.56.37,6.32.65c1.94.3,4.24.37,6.15.66,1.63.24,11.54,1.3,12.08,1.56l.45-.53A4,4,0,0,1,237,78c1.94-1.62,1.47-.65,3.24-1.49a5.58,5.58,0,0,0,2.92.69c.95,0,1.53-1.14,1.53-2.09,0-.36-1.78-1.49-2.09-2l1.46-1.86a21.24,21.24,0,0,0,8.43,1.87c1.61,0,3.36-.17,4.87-.28s3.12-.42,4.6-.42h2.92c2.78-.45-1.89,2,.53,3.36-.47,0-.6.18-.52,1.31,0,.57.62.71,1,.94A1,1,0,0,0,266,80a3.42,3.42,0,0,0-.44,1.28C265.37,82.88,268,84.61,269.63,84.59Z" transform="translate(-54.53 -50.91)"/><rect x="213.71" y="29.64" width="1.53" height="1.67" rx="0.7"/></svg>